<svg width="337" height="67" viewBox="0 0 337 67" fill="none" xmlns="http://www.w3.org/2000/svg">
<g clip-path="url(#clip0_20_39)">
<path d="M94.0576 18.0132H98.4168C99.2859 18.0132 100.108 18.399 100.651 19.0619L109.987 30.4615L119.324 19.0619C119.867 18.399 120.689 18.0132 121.558 18.0132H125.917V47.0589H119.545V27.9719L109.987 39.5895L100.43 27.9719V47.0589H94.0576V18.0132Z" fill="white"/>
<path d="M133.191 18.0132H137.55C138.419 18.0132 139.241 18.399 139.784 19.0619L149.121 30.4615L158.457 19.0619C159 18.399 159.822 18.0132 160.691 18.0132H165.05V47.0589H158.678V27.9719L149.121 39.5895L139.563 27.9719V47.0589H133.191V18.0132Z" fill="white"/>
<path d="M197.525 35.0257V18.0132H193.126C192.036 18.0132 191.153 18.8763 191.153 19.9409V35.0257C191.153 39.175 188.434 41.8722 184.569 41.8722C180.703 41.8722 177.984 39.175 177.984 35.0257V19.9409C177.984 18.8763 177.101 18.0132 176.011 18.0132H171.612V35.0257C171.612 40.9759 174.984 45.4739 180.221 47.0586C183.057 47.8885 186.08 47.8885 188.917 47.0586C194.153 45.4739 197.525 40.9759 197.525 35.0257Z" fill="white"/>
<path d="M225.202 23.8218V18.0132H201.839V23.8218H210.335V47.0586H216.707V23.8218H225.202Z" fill="white"/>
<path fill-rule="evenodd" clip-rule="evenodd" d="M224.926 47.0586L235.689 19.8019C236.115 18.7241 237.176 18.0132 238.358 18.0132H241.654C242.837 18.0132 243.898 18.7241 244.323 19.802L255.086 47.0586H248.289L245.741 40.4198H234.271L231.722 47.0586H224.926ZM239.921 25.2746L236.396 34.818H243.617L240.09 25.2746H239.921Z" fill="white"/>
<path fill-rule="evenodd" clip-rule="evenodd" d="M282.692 38.7602C282.726 36.5609 281.704 34.4725 279.93 33.1171C279.111 32.4779 278.174 31.9987 277.169 31.706C277.907 31.3963 278.583 30.9608 279.165 30.4199C280.509 29.2019 281.252 27.4789 281.205 25.6893C281.205 21.54 277.594 18.0132 271.647 18.0132H259.115V47.0586H272.496C278.826 47.0586 282.692 43.283 282.692 38.7602ZM265.488 23.4072H271.222C273.388 23.4072 274.62 24.6521 274.62 26.3117C274.62 27.9719 273.388 29.2168 271.222 29.2168H265.488V23.4072ZM265.488 41.6645H272.071C274.62 41.6645 276.107 40.2537 276.107 38.1377C276.107 36.0216 274.62 34.6109 272.071 34.6109H265.488V41.6645Z" fill="white"/>
<path d="M294.472 41.25V19.9409C294.472 18.8763 293.588 18.0132 292.498 18.0132H288.099V47.0586H308.277V41.25H294.472Z" fill="white"/>
<path d="M314.564 18.0132H334.68V23.8221H318.963V29.4239H331.283V35.0257H318.963V41.25H335.106V47.0589H314.564C313.476 47.0589 312.593 46.1957 312.593 45.131V19.9409C312.593 18.8763 313.476 18.0132 314.564 18.0132Z" fill="white"/>
<path d="M80.9477 26.1551L87.0853 22.694V18.0132H82.6867C82.1633 18.0132 81.6614 18.2163 81.2913 18.5778C80.9212 18.9393 80.7133 19.4297 80.7133 19.9409V26.2874L80.9477 26.1551Z" fill="white"/>
<path d="M80.9477 29.7852L80.7133 29.9174V47.0584H87.0853V26.324L80.9477 29.7852Z" fill="white"/>
<path d="M60.535 19.205V35.8455C60.535 37.651 59.5488 39.3196 57.9479 40.2224L33.4629 54.0308V46.8236L53.1577 35.7165C53.7685 35.3722 54.1446 34.7357 54.1446 34.0467V12.6833L57.9479 14.828C59.5488 15.7308 60.535 17.3993 60.535 19.205Z" fill="white"/>
<path d="M27.0723 58.4849V65.6927L2.58708 51.8842C0.986187 50.9815 -6.02475e-07 49.3129 0 47.5074V30.8666C1.35133e-06 29.0611 0.986154 27.3927 2.587 26.4898L19.9277 16.7102L26.3181 20.3145L7.37782 30.9957C6.76684 31.3403 6.39047 31.9768 6.39047 32.666V45.7074C6.39047 46.3967 6.76684 47.0334 7.37779 47.3778L27.0723 58.4849Z" fill="white"/>
<path d="M60.535 43.2175V47.5076C60.535 49.3131 59.5488 50.9817 57.9479 51.8844L33.4629 65.6928V58.4848L60.535 43.2175Z" fill="white"/>
<path d="M39.8555 16.2864V23.4936L20.9157 12.8125C20.3048 12.4679 19.552 12.4679 18.941 12.8125L0 23.4943V19.2044C-9.97269e-07 17.3987 0.986232 15.7302 2.58718 14.8275L17.3413 6.50739C18.9422 5.60461 20.9145 5.60464 22.5154 6.50745L39.8555 16.2864Z" fill="white"/>
<path d="M27.0725 46.8232V54.0306L10.3394 44.5941V33.7797L16.7317 30.1746V40.9919L27.0725 46.8232Z" fill="white"/>
<path d="M47.608 8.99717C49.2089 9.89998 50.1951 11.5685 50.1951 13.3741V32.9325L50.1674 32.948L43.8046 36.5363V15.1727C43.8046 14.484 43.4286 13.8476 42.8178 13.5032L23.877 2.82179L27.6804 0.677026C29.2813 -0.225701 31.2536 -0.225674 32.8545 0.677096L47.608 8.99717Z" fill="white"/>
</g>
<defs>
<clipPath id="clip0_20_39">
<rect width="337" height="67" fill="white"/>
</clipPath>
</defs>
</svg>
